# xmcd CD database file
# 
# Track frame offsets:
# 	150
# 	18162
# 	35905
# 	61990
# 	78230
# 	94900
# 	116257
# 	134487
# 	149485
# 	166565
# 
# Disc length: 2518 seconds
# 
# Submitted via: Nero 5.5.9.0
# 
# Revision: 0
# Processed by: cddbd v1.4PL0 Copyright (c) Steve Scherf et al.
#
DISCID=7e09d40a
DTITLE=Arti White - Hit and Run
DYEAR=1900
DGENRE=
TTITLE0=Doctor, Doctor
TTITLE1=Hit and run
TTITLE2=Nothing but the blues
TTITLE3=You left me standing
TTITLE4=Bad luck child
TTITLE5=I'm glad you gone
TTITLE6=Just getting in
TTITLE7=You build my hopes so high
TTITLE8=Mr. Mailman
TTITLE9=I'm a lonely man
EXTD=
EXTT0=
EXTT1=
EXTT2=
EXTT3=
EXTT4=
EXTT5=
EXTT6=
EXTT7=
EXTT8=
EXTT9=
PLAYORDER=
